<svg width="105" height="19" viewBox="0 0 105 19" fill="none" xmlns="http://www.w3.org/2000/svg">
<path d="M2.112 0.383999H15.456C15.968 0.383999 16.344 0.447999 16.584 0.576C16.824 0.687999 16.984 0.871999 17.064 1.128C17.144 1.384 17.184 1.72 17.184 2.136C17.184 2.552 17.144 2.888 17.064 3.144C16.984 3.384 16.848 3.552 16.656 3.648C16.368 3.792 15.96 3.864 15.432 3.864H10.848V15.936C10.848 16.304 10.832 16.576 10.8 16.752C10.784 16.928 10.712 17.136 10.584 17.376C10.472 17.6 10.264 17.76 9.96 17.856C9.656 17.952 9.256 18 8.76 18C8.264 18 7.864 17.952 7.56 17.856C7.272 17.76 7.064 17.6 6.936 17.376C6.824 17.136 6.752 16.928 6.72 16.752C6.704 16.56 6.696 16.28 6.696 15.912V3.864H2.088C1.576 3.864 1.2 3.808 0.96 3.696C0.72 3.568 0.56 3.376 0.48 3.12C0.4 2.864 0.36 2.528 0.36 2.112C0.36 1.696 0.4 1.368 0.48 1.128C0.56 0.871999 0.696 0.695999 0.888 0.599999C1.176 0.455999 1.584 0.383999 2.112 0.383999ZM29.3867 1.056C29.5147 0.816 29.7307 0.647999 30.0347 0.551999C30.3387 0.455999 30.7227 0.407999 31.1867 0.407999C31.6507 0.407999 32.0187 0.447999 32.2907 0.527999C32.5627 0.607999 32.7707 0.703999 32.9147 0.816C33.0587 0.927999 33.1707 1.088 33.2507 1.296C33.3307 1.568 33.3707 1.984 33.3707 2.544V15.864C33.3707 16.232 33.3547 16.512 33.3227 16.704C33.3067 16.88 33.2347 17.088 33.1067 17.328C32.8827 17.76 32.2587 17.976 31.2347 17.976C30.1147 17.976 29.4587 17.68 29.2667 17.088C29.1707 16.816 29.1227 16.4 29.1227 15.84V10.968H22.7627V15.864C22.7627 16.232 22.7467 16.512 22.7147 16.704C22.6987 16.88 22.6267 17.088 22.4987 17.328C22.2747 17.76 21.6507 17.976 20.6267 17.976C19.5067 17.976 18.8507 17.68 18.6587 17.088C18.5627 16.816 18.5147 16.4 18.5147 15.84V2.52C18.5147 2.152 18.5227 1.88 18.5387 1.704C18.5707 1.512 18.6507 1.296 18.7787 1.056C19.0027 0.623999 19.6267 0.407999 20.6507 0.407999C21.7707 0.407999 22.4347 0.703999 22.6427 1.296C22.7227 1.568 22.7627 1.984 22.7627 2.544V7.44H29.1227V2.52C29.1227 2.152 29.1307 1.88 29.1467 1.704C29.1787 1.512 29.2587 1.296 29.3867 1.056ZM39.5439 13.752H46.9359C47.3039 13.752 47.5759 13.768 47.7519 13.8C47.9439 13.816 48.1599 13.888 48.3999 14.016C48.8319 14.24 49.0479 14.864 49.0479 15.888C49.0479 17.008 48.7519 17.664 48.1599 17.856C47.8879 17.952 47.4719 18 46.9119 18H37.4079C36.2879 18 35.6319 17.696 35.4399 17.088C35.3439 16.832 35.2959 16.424 35.2959 15.864V2.52C35.2959 1.704 35.4479 1.152 35.7519 0.863999C36.0559 0.559999 36.6319 0.407999 37.4799 0.407999H46.9359C47.3039 0.407999 47.5759 0.423999 47.7519 0.456C47.9439 0.472 48.1599 0.543999 48.3999 0.671999C48.8319 0.895999 49.0479 1.52 49.0479 2.544C49.0479 3.664 48.7519 4.32 48.1599 4.512C47.8879 4.608 47.4719 4.656 46.9119 4.656H39.5439V7.08H44.2959C44.6639 7.08 44.9359 7.096 45.1119 7.128C45.3039 7.144 45.5199 7.216 45.7599 7.344C46.1919 7.568 46.4079 8.192 46.4079 9.216C46.4079 10.336 46.1039 10.992 45.4959 11.184C45.2239 11.28 44.8079 11.328 44.2479 11.328H39.5439V13.752ZM70.1349 15.024C70.3749 15.6 70.4949 16.016 70.4949 16.272C70.4949 16.88 69.9989 17.392 69.0069 17.808C68.4949 18.032 68.0789 18.144 67.7589 18.144C67.4549 18.144 67.1989 18.072 66.9909 17.928C66.7989 17.768 66.6549 17.608 66.5589 17.448C66.3989 17.144 65.7749 15.696 64.6869 13.104L63.9429 13.152H60.9189V15.864C60.9189 16.232 60.9029 16.512 60.8709 16.704C60.8549 16.88 60.7829 17.088 60.6549 17.328C60.4309 17.76 59.8069 17.976 58.7829 17.976C57.6629 17.976 57.0069 17.68 56.8149 17.088C56.7189 16.816 56.6709 16.4 56.6709 15.84V2.52C56.6709 2.152 56.6789 1.88 56.6949 1.704C56.7269 1.512 56.8069 1.296 56.9349 1.056C57.1589 0.623999 57.7829 0.407999 58.8069 0.407999H63.9909C65.3989 0.407999 66.7669 0.919999 68.0949 1.944C68.7349 2.44 69.2629 3.112 69.6789 3.96C70.0949 4.808 70.3029 5.752 70.3029 6.792C70.3029 8.6 69.7029 10.088 68.5029 11.256C68.8549 12.104 69.3989 13.36 70.1349 15.024ZM60.9189 8.904H63.9909C64.4549 8.904 64.9189 8.728 65.3829 8.376C65.8469 8.024 66.0789 7.496 66.0789 6.792C66.0789 6.088 65.8469 5.56 65.3829 5.208C64.9189 4.84 64.4389 4.656 63.9429 4.656H60.9189V8.904ZM83.3076 1.056C83.4676 0.799999 83.6996 0.623999 84.0036 0.527999C84.3076 0.431999 84.6836 0.383999 85.1316 0.383999C85.5956 0.383999 85.9636 0.423999 86.2356 0.503999C86.5076 0.583999 86.7156 0.679999 86.8596 0.792C87.0036 0.903999 87.1076 1.072 87.1716 1.296C87.2676 1.568 87.3156 1.984 87.3156 2.544V9.792C87.3156 11.904 86.6596 13.824 85.3476 15.552C84.7076 16.368 83.8836 17.032 82.8756 17.544C81.8676 18.04 80.7476 18.288 79.5156 18.288C78.2996 18.288 77.1876 18.032 76.1796 17.52C75.1876 17.008 74.3796 16.336 73.7556 15.504C72.4596 13.808 71.8116 11.888 71.8116 9.744V2.52C71.8116 2.136 71.8196 1.856 71.8356 1.68C71.8676 1.488 71.9476 1.272 72.0756 1.032C72.2036 0.791999 72.4196 0.623999 72.7236 0.527999C73.0276 0.431999 73.4356 0.383999 73.9476 0.383999C74.4596 0.383999 74.8676 0.431999 75.1716 0.527999C75.4756 0.623999 75.6836 0.791999 75.7956 1.032C75.9876 1.4 76.0836 1.904 76.0836 2.544V9.744C76.0836 10.72 76.3236 11.648 76.8036 12.528C77.0436 12.976 77.4036 13.336 77.8836 13.608C78.3636 13.88 78.9316 14.016 79.5876 14.016C80.7556 14.016 81.6276 13.584 82.2036 12.72C82.7796 11.856 83.0676 10.856 83.0676 9.72V2.376C83.0676 1.752 83.1476 1.312 83.3076 1.056ZM100.578 1.152C100.738 0.863999 100.97 0.671999 101.274 0.576C101.578 0.479999 101.954 0.431999 102.402 0.431999C102.866 0.431999 103.234 0.471999 103.506 0.551999C103.794 0.631999 104.002 0.727999 104.13 0.839999C104.274 0.952 104.378 1.12 104.442 1.344C104.538 1.6 104.586 2.008 104.586 2.568V15.888C104.586 16.272 104.57 16.552 104.538 16.728C104.522 16.904 104.45 17.112 104.322 17.352C104.098 17.784 103.474 18 102.45 18C101.826 18 101.394 17.952 101.154 17.856C100.914 17.76 100.714 17.608 100.554 17.4C96.9536 12.6 94.5856 9.464 93.4496 7.992V15.888C93.4496 16.272 93.4336 16.552 93.4016 16.728C93.3856 16.904 93.3136 17.112 93.1856 17.352C92.9616 17.784 92.3376 18 91.3136 18C90.3216 18 89.7136 17.784 89.4896 17.352C89.3616 17.112 89.2816 16.896 89.2496 16.704C89.2336 16.512 89.2256 16.232 89.2256 15.864V2.472C89.2256 1.864 89.2976 1.424 89.4416 1.152C89.6016 0.863999 89.8336 0.671999 90.1376 0.576C90.4416 0.479999 90.8336 0.431999 91.3136 0.431999C91.7936 0.431999 92.1696 0.479999 92.4416 0.576C92.7296 0.656 92.9296 0.751999 93.0416 0.863999C93.1056 0.911999 93.2896 1.12 93.5936 1.488C96.9696 6.08 99.2256 9.112 100.362 10.584V2.472C100.362 1.864 100.434 1.424 100.578 1.152Z" fill="black"/>
</svg>
