<svg width="109" height="21" viewBox="0 0 109 21" fill="none" xmlns="http://www.w3.org/2000/svg">
<path d="M1.76 1.32H12.88C13.3067 1.32 13.62 1.37333 13.82 1.48C14.02 1.57333 14.1533 1.72667 14.22 1.94C14.2867 2.15333 14.32 2.43333 14.32 2.78C14.32 3.12667 14.2867 3.40667 14.22 3.62C14.1533 3.82 14.04 3.96 13.88 4.04C13.64 4.16 13.3 4.22 12.86 4.22H9.04V14.28C9.04 14.5867 9.02667 14.8133 9 14.96C8.98667 15.1067 8.92667 15.28 8.82 15.48C8.72667 15.6667 8.55333 15.8 8.3 15.88C8.04667 15.96 7.71333 16 7.3 16C6.88667 16 6.55333 15.96 6.3 15.88C6.06 15.8 5.88667 15.6667 5.78 15.48C5.68667 15.28 5.62667 15.1067 5.6 14.96C5.58667 14.8 5.58 14.5667 5.58 14.26V4.22H1.74C1.31333 4.22 1 4.17333 0.8 4.08C0.6 3.97333 0.466667 3.81333 0.4 3.6C0.333333 3.38667 0.3 3.10667 0.3 2.76C0.3 2.41333 0.333333 2.14 0.4 1.94C0.466667 1.72667 0.58 1.58 0.74 1.5C0.98 1.38 1.32 1.32 1.76 1.32ZM12.7266 10.74C12.7266 9.14 13.2866 7.82 14.4066 6.78C15.5266 5.74 16.8066 5.22 18.2466 5.22C19.6866 5.22 20.9599 5.74 22.0666 6.78C23.1732 7.80667 23.7266 9.12 23.7266 10.72C23.7266 11.8267 23.4399 12.8133 22.8666 13.68C22.2932 14.5333 21.5932 15.1667 20.7666 15.58C19.9532 15.98 19.1066 16.18 18.2266 16.18C17.3466 16.18 16.4932 15.9667 15.6666 15.54C14.8399 15.1 14.1399 14.46 13.5666 13.62C13.0066 12.7667 12.7266 11.8067 12.7266 10.74ZM16.9066 12.18C17.3332 12.5 17.7666 12.66 18.2066 12.66C18.6466 12.66 19.0866 12.4933 19.5266 12.16C19.9666 11.8267 20.1866 11.3333 20.1866 10.68C20.1866 10.0267 19.9799 9.54 19.5666 9.22C19.1532 8.9 18.7066 8.74 18.2266 8.74C17.7466 8.74 17.2999 8.90667 16.8866 9.24C16.4732 9.57333 16.2666 10.0667 16.2666 10.72C16.2666 11.36 16.4799 11.8467 16.9066 12.18ZM25.0188 18.86V7.18C25.0188 6.87333 25.0254 6.64667 25.0388 6.5C25.0654 6.35333 25.1254 6.18667 25.2188 6C25.4054 5.64 25.8521 5.46 26.5588 5.46C27.2654 5.46 27.7388 5.55333 27.9788 5.74C28.2321 5.91333 28.3788 6.17333 28.4188 6.52C28.9254 5.82667 29.7188 5.48 30.7988 5.48C31.8921 5.48 32.9254 5.99333 33.8988 7.02C34.8721 8.04667 35.3588 9.24 35.3588 10.6C35.3588 11.96 34.8721 13.1533 33.8988 14.18C32.9388 15.2067 31.9121 15.72 30.8188 15.72C29.7254 15.72 28.9321 15.4133 28.4388 14.8V18.84C28.4388 19.1467 28.4254 19.3733 28.3988 19.52C28.3854 19.6667 28.3254 19.8333 28.2188 20.02C28.1254 20.22 27.9588 20.36 27.7188 20.44C27.4788 20.52 27.1521 20.56 26.7388 20.56C26.3254 20.56 25.9921 20.52 25.7388 20.44C25.4988 20.36 25.3254 20.2267 25.2188 20.04C25.1254 19.8533 25.0654 19.6867 25.0388 19.54C25.0254 19.3933 25.0188 19.1667 25.0188 18.86ZM28.9788 9.44C28.6721 9.8 28.5188 10.1933 28.5188 10.62C28.5188 11.0467 28.6721 11.44 28.9788 11.8C29.2988 12.1467 29.6988 12.32 30.1788 12.32C30.6721 12.32 31.0854 12.1467 31.4188 11.8C31.7654 11.4533 31.9388 11.06 31.9388 10.62C31.9388 10.18 31.7788 9.78667 31.4588 9.44C31.1388 9.08 30.7188 8.9 30.1988 8.9C29.6921 8.9 29.2854 9.08 28.9788 9.44ZM41.938 13.94C41.5913 13.5133 41.418 13.1333 41.418 12.8C41.418 12.4533 41.7046 12 42.278 11.44C42.6113 11.12 42.9646 10.96 43.338 10.96C43.7113 10.96 44.2313 11.2933 44.898 11.96C45.0846 12.1867 45.3513 12.4067 45.698 12.62C46.0446 12.82 46.3646 12.92 46.658 12.92C47.898 12.92 48.518 12.4133 48.518 11.4C48.518 11.0933 48.3446 10.84 47.998 10.64C47.6646 10.4267 47.2446 10.2733 46.738 10.18C46.2313 10.0867 45.6846 9.94 45.098 9.74C44.5113 9.52667 43.9646 9.28 43.458 9C42.9513 8.72 42.5246 8.28 42.178 7.68C41.8446 7.06667 41.678 6.33333 41.678 5.48C41.678 4.30667 42.1113 3.28667 42.978 2.42C43.858 1.54 45.0513 1.1 46.558 1.1C47.358 1.1 48.0846 1.20667 48.738 1.42C49.4046 1.62 49.8646 1.82667 50.118 2.04L50.618 2.42C51.0313 2.80667 51.238 3.13333 51.238 3.4C51.238 3.66667 51.078 4.03333 50.758 4.5C50.3046 5.16667 49.838 5.5 49.358 5.5C49.078 5.5 48.7313 5.36667 48.318 5.1C48.278 5.07333 48.198 5.00667 48.078 4.9C47.9713 4.79333 47.8713 4.70667 47.778 4.64C47.498 4.46667 47.138 4.38 46.698 4.38C46.2713 4.38 45.9113 4.48667 45.618 4.7C45.338 4.9 45.198 5.18667 45.198 5.56C45.198 5.92 45.3646 6.21333 45.698 6.44C46.0446 6.66667 46.4713 6.82 46.978 6.9C47.4846 6.98 48.038 7.10667 48.638 7.28C49.238 7.44 49.7913 7.64 50.298 7.88C50.8046 8.12 51.2246 8.54 51.558 9.14C51.9046 9.72667 52.078 10.4533 52.078 11.32C52.078 12.1867 51.9046 12.9533 51.558 13.62C51.2113 14.2733 50.758 14.78 50.198 15.14C49.118 15.8467 47.9646 16.2 46.738 16.2C46.1113 16.2 45.518 16.1267 44.958 15.98C44.398 15.82 43.9446 15.6267 43.598 15.4C42.8913 14.9733 42.398 14.56 42.118 14.16L41.938 13.94ZM59.1075 9L57.8075 8.92V11.68C57.8075 12.04 57.8608 12.3 57.9675 12.46C58.0875 12.62 58.3008 12.7 58.6075 12.7C58.9275 12.7 59.1675 12.7133 59.3275 12.74C59.5008 12.7533 59.6808 12.8133 59.8675 12.92C60.1742 13.0933 60.3275 13.54 60.3275 14.26C60.3275 15.1 60.1408 15.6133 59.7675 15.8C59.5675 15.8933 59.3875 15.9533 59.2275 15.98C59.0808 15.9933 58.8608 16 58.5675 16C57.1808 16 56.1275 15.6867 55.4075 15.06C54.6875 14.4333 54.3275 13.3733 54.3275 11.88V8.92C54.0742 8.96 53.8008 8.98 53.5075 8.98C53.2142 8.98 52.9675 8.86667 52.7675 8.64C52.5808 8.41333 52.4875 8.02667 52.4875 7.48C52.4875 6.93333 52.5208 6.54 52.5875 6.3C52.6542 6.04667 52.7475 5.86667 52.8675 5.76C53.0808 5.58667 53.3475 5.5 53.6675 5.5L54.3275 5.58V3.52C54.3275 3.21333 54.3342 2.98667 54.3475 2.84C54.3742 2.69333 54.4408 2.53333 54.5475 2.36C54.7208 2.02667 55.2342 1.86 56.0875 1.86C56.9942 1.86 57.5342 2.10667 57.7075 2.6C57.7742 2.81333 57.8075 3.15333 57.8075 3.62V5.58C58.3942 5.52667 58.8342 5.5 59.1275 5.5C59.4342 5.5 59.6608 5.51333 59.8075 5.54C59.9675 5.55333 60.1475 5.61333 60.3475 5.72C60.6942 5.89333 60.8675 6.40667 60.8675 7.26C60.8675 8.1 60.6875 8.61333 60.3275 8.8C60.1275 8.89333 59.9475 8.95333 59.7875 8.98C59.6408 8.99333 59.4142 9 59.1075 9ZM61.6719 10.74C61.6719 9.14 62.2319 7.82 63.3519 6.78C64.4719 5.74 65.7519 5.22 67.1919 5.22C68.6319 5.22 69.9052 5.74 71.0119 6.78C72.1185 7.80667 72.6719 9.12 72.6719 10.72C72.6719 11.8267 72.3852 12.8133 71.8119 13.68C71.2385 14.5333 70.5385 15.1667 69.7119 15.58C68.8985 15.98 68.0519 16.18 67.1719 16.18C66.2919 16.18 65.4385 15.9667 64.6119 15.54C63.7852 15.1 63.0852 14.46 62.5119 13.62C61.9519 12.7667 61.6719 11.8067 61.6719 10.74ZM65.8519 12.18C66.2785 12.5 66.7119 12.66 67.1519 12.66C67.5919 12.66 68.0319 12.4933 68.4719 12.16C68.9119 11.8267 69.1319 11.3333 69.1319 10.68C69.1319 10.0267 68.9252 9.54 68.5119 9.22C68.0985 8.9 67.6519 8.74 67.1719 8.74C66.6919 8.74 66.2452 8.90667 65.8319 9.24C65.4185 9.57333 65.2119 10.0667 65.2119 10.72C65.2119 11.36 65.4252 11.8467 65.8519 12.18ZM81.1241 5.58C81.3774 5.66 81.5841 5.8 81.7441 6C81.9174 6.18667 82.0041 6.49333 82.0041 6.92C82.0041 7.34667 81.8774 7.81333 81.6241 8.32C81.3707 8.82667 81.0041 9.08 80.5241 9.08C80.2841 9.08 80.0507 9.02667 79.8241 8.92C79.6107 8.81333 79.3241 8.76 78.9641 8.76C78.6041 8.76 78.2641 8.88667 77.9441 9.14C77.6374 9.39333 77.4841 9.7 77.4841 10.06V14.26C77.4841 14.5667 77.4707 14.8 77.4441 14.96C77.4307 15.1067 77.3707 15.28 77.2641 15.48C77.0641 15.8267 76.5441 16 75.7041 16C75.0641 16 74.6041 15.8867 74.3241 15.66C74.1107 15.4733 73.9907 15.1867 73.9641 14.8C73.9641 14.6667 73.9641 14.4733 73.9641 14.22V7.2C73.9641 6.89333 73.9707 6.66667 73.9841 6.52C74.0107 6.36 74.0707 6.18667 74.1641 6C74.3507 5.64 74.8707 5.46 75.7241 5.46C76.5241 5.46 77.0241 5.61333 77.2241 5.92C77.3707 6.13333 77.4441 6.35333 77.4441 6.58C77.5107 6.48667 77.6041 6.37333 77.7241 6.24C77.8574 6.10667 78.1307 5.92667 78.5441 5.7C78.9574 5.47333 79.3174 5.36 79.6241 5.36C79.9441 5.36 80.2107 5.38 80.4241 5.42C80.6374 5.44667 80.8707 5.5 81.1241 5.58ZM83.1047 7.22C83.1047 6.91333 83.1114 6.68667 83.1247 6.54C83.1514 6.38 83.2114 6.2 83.3047 6C83.4914 5.65333 84.0114 5.48 84.8647 5.48C85.5047 5.48 85.958 5.59333 86.2247 5.82C86.4514 6.00667 86.5714 6.29333 86.5847 6.68C86.598 6.81333 86.6047 7.00667 86.6047 7.26V14.26C86.6047 14.5667 86.5914 14.8 86.5647 14.96C86.5514 15.1067 86.4914 15.28 86.3847 15.48C86.2114 15.8267 85.698 16 84.8447 16C84.0047 16 83.4914 15.82 83.3047 15.46C83.2114 15.26 83.1514 15.0867 83.1247 14.94C83.1114 14.7933 83.1047 14.56 83.1047 14.24V7.22ZM86.3847 3.52C86.2914 3.70667 86.118 3.84 85.8647 3.92C85.6114 4 85.2714 4.04 84.8447 4.04C84.4314 4.04 84.098 4 83.8447 3.92C83.5914 3.84 83.4114 3.7 83.3047 3.5C83.2114 3.3 83.1514 3.12667 83.1247 2.98C83.1114 2.82 83.1047 2.58667 83.1047 2.28C83.1047 1.97333 83.1114 1.74667 83.1247 1.6C83.1514 1.44 83.2114 1.26667 83.3047 1.08C83.4914 0.719999 84.0114 0.539999 84.8647 0.539999C85.7047 0.539999 86.2114 0.719999 86.3847 1.08C86.4914 1.28 86.5514 1.46 86.5647 1.62C86.5914 1.76667 86.6047 1.99333 86.6047 2.3C86.6047 2.60667 86.5914 2.84 86.5647 3C86.5514 3.14667 86.4914 3.32 86.3847 3.52ZM98.3623 9.48C98.3623 10.2933 98.1557 10.9 97.7423 11.3C97.3423 11.6867 96.8957 11.88 96.4023 11.88H91.6623C91.6623 12.2533 91.8823 12.5667 92.3223 12.82C92.7623 13.0733 93.2023 13.2 93.6423 13.2C94.4157 13.2 95.0223 13.12 95.4623 12.96L95.6823 12.88C96.0023 12.7333 96.269 12.66 96.4823 12.66C96.909 12.66 97.2757 12.96 97.5823 13.56C97.7557 13.92 97.8423 14.2267 97.8423 14.48C97.8423 15.6667 96.4223 16.26 93.5823 16.26C92.5957 16.26 91.7157 16.0933 90.9423 15.76C90.1823 15.4133 89.589 14.96 89.1623 14.4C88.3223 13.32 87.9023 12.1133 87.9023 10.78C87.9023 9.1 88.4423 7.76 89.5223 6.76C90.6157 5.74667 91.9757 5.24 93.6023 5.24C95.4557 5.24 96.8157 5.89333 97.6823 7.2C98.1357 7.89333 98.3623 8.65333 98.3623 9.48ZM94.1423 10.06C94.649 10.06 94.9023 9.84667 94.9023 9.42C94.9023 9.11333 94.7823 8.86667 94.5423 8.68C94.3157 8.49333 93.9823 8.4 93.5423 8.4C93.1157 8.4 92.689 8.58 92.2623 8.94C91.8357 9.28667 91.6223 9.66 91.6223 10.06H94.1423ZM99.7472 15.06C99.4939 14.9 99.3672 14.6467 99.3672 14.3C99.3672 13.9533 99.6205 13.4267 100.127 12.72C100.274 12.4933 100.507 12.38 100.827 12.38C101.161 12.38 101.607 12.5467 102.167 12.88C102.727 13.2 103.234 13.36 103.687 13.36C104.501 13.36 104.907 13.2 104.907 12.88C104.907 12.6267 104.461 12.44 103.567 12.32C102.727 12.2 101.894 11.8867 101.067 11.38C100.681 11.14 100.361 10.7667 100.107 10.26C99.8539 9.74 99.7272 9.12667 99.7272 8.42C99.7272 6.31333 101.174 5.26 104.067 5.26C105.014 5.26 105.987 5.48667 106.987 5.94C107.454 6.15333 107.687 6.42 107.687 6.74C107.687 7.06 107.541 7.45333 107.247 7.92C106.954 8.38667 106.654 8.62 106.347 8.62C106.187 8.62 105.887 8.52 105.447 8.32C105.021 8.12 104.554 8.02 104.047 8.02C103.261 8.02 102.867 8.16667 102.867 8.46C102.867 8.86 103.321 9.12 104.227 9.24C105.107 9.33333 105.961 9.58667 106.787 10C107.174 10.1867 107.494 10.5133 107.747 10.98C108.014 11.4333 108.147 12.0067 108.147 12.7C108.147 13.3933 108.014 13.9867 107.747 14.48C107.494 14.96 107.134 15.32 106.667 15.56C105.814 15.9733 104.741 16.18 103.447 16.18C102.167 16.18 100.934 15.8067 99.7472 15.06Z" fill="black"/>
</svg>
